<svg version="1.1" xmlns="http://www.w3.org/2000/svg" viewBox="0 0 698.9905937379343 553" width="1397.9811874758686" height="1106" filter="invert(93%) hue-rotate(180deg)">
  <!-- svg-source:excalidraw -->
  
  <defs>
    <style class="style-fonts">
      @font-face {
        font-family: "Virgil";
        src: url("https://excalidraw.com/Virgil.woff2");
      }
      @font-face {
        font-family: "Cascadia";
        src: url("https://excalidraw.com/Cascadia.woff2");
      }
    </style>
  </defs>
  <g stroke-linecap="round" transform="translate(218.42809373793432 10) rotate(0 71.5 36.5)"><path d="M18.25 0 M18.25 0 C38.11 -1.14, 66.39 -0.04, 124.75 0 M18.25 0 C40.68 0.98, 62.65 0.93, 124.75 0 M124.75 0 C139.71 0.78, 146.35 9.6, 143 18.25 M124.75 0 C139.94 -0.09, 138.98 3, 143 18.25 M143 18.25 C145.42 28.6, 140.16 41.27, 143 54.75 M143 18.25 C143.94 28.63, 142.55 41.5, 143 54.75 M143 54.75 C146.41 65.68, 132.98 70.83, 124.75 73 M143 54.75 C140.44 62.36, 138.29 70.29, 124.75 73 M124.75 73 C87.56 69.93, 51.39 74.03, 18.25 73 M124.75 73 C83.35 74.51, 41.1 75.01, 18.25 73 M18.25 73 C9.94 71.16, -1.61 63.53, 0 54.75 M18.25 73 C6.18 68.97, -2.04 63.6, 0 54.75 M0 54.75 C-4.11 47.29, 0.43 36.49, 0 18.25 M0 54.75 C1.57 47.14, 0.83 40.46, 0 18.25 M0 18.25 C1.72 9.83, 4.44 -1.59, 18.25 0 M0 18.25 C-1.57 7.21, 6.48 -0.08, 18.25 0" stroke="#5f3dc4" stroke-width="1" fill="none"></path></g><g transform="translate(237.05815202650854 34.5) rotate(0 52.86994171142578 12)"><text x="52.86994171142578" y="0" font-family="Virgil, Segoe UI Emoji" font-size="20px" fill="#5f3dc4" text-anchor="middle" style="white-space: pre;" direction="ltr" dominant-baseline="text-before-edge">useAxues()</text></g><g stroke-linecap="round" transform="translate(224.92809373793432 152) rotate(0 61.5 41)"><path d="M20.5 0 M20.5 0 C40.34 -0.5, 54.28 5.02, 102.5 0 M20.5 0 C39.08 -0.08, 62.1 0.55, 102.5 0 M102.5 0 C119.52 3.52, 125.63 6.76, 123 20.5 M102.5 0 C112.15 -3.08, 122.62 3.75, 123 20.5 M123 20.5 C121.25 30.87, 124.31 38.88, 123 61.5 M123 20.5 C122.65 30.87, 125.01 40.5, 123 61.5 M123 61.5 C119.06 73, 113.94 78.04, 102.5 82 M123 61.5 C124.37 72.46, 117.76 86.09, 102.5 82 M102.5 82 C78.49 82.75, 62.21 77.47, 20.5 82 M102.5 82 C72.67 83.17, 46.43 81.38, 20.5 82 M20.5 82 C5.23 78.62, 0.09 71.66, 0 61.5 M20.5 82 C4.79 78.68, -4.45 76.08, 0 61.5 M0 61.5 C1.39 43.7, -2.59 32.84, 0 20.5 M0 61.5 C0.19 52.87, 0.21 43.34, 0 20.5 M0 20.5 C-1.64 5.24, 5.47 0.98, 20.5 0 M0 20.5 C0.39 6.75, 5.61 -3.28, 20.5 0" stroke="#2b8a3e" stroke-width="1" fill="none"></path></g><g transform="translate(235.40813524184057 169) rotate(0 51.01995849609375 24)"><text x="51.01995849609375" y="0" font-family="Virgil, Segoe UI Emoji" font-size="20px" fill="#2b8a3e" text-anchor="middle" style="white-space: pre;" direction="ltr" dominant-baseline="text-before-edge">pending</text><text x="51.01995849609375" y="24" font-family="Virgil, Segoe UI Emoji" font-size="20px" fill="#2b8a3e" text-anchor="middle" style="white-space: pre;" direction="ltr" dominant-baseline="text-before-edge">(canAbort)</text></g><g stroke-linecap="round"><g transform="translate(289.56670942742255 84) rotate(0 1.1794899007025492 30.94760806936779)"><path d="M-1.13 -2.36 C-0.83 7.73, 0.29 50.61, -0.12 61.46 M3.46 2.52 C3.8 12.89, 0.67 53.73, -0.88 64.26" stroke="#5f3dc4" stroke-width="1" fill="none"></path></g><g transform="translate(289.56670942742255 84) rotate(0 1.1794899007025492 30.94760806936779)"><path d="M-11.51 39.06 C-8.46 40.91, -4.96 45.7, -1.35 67.05 M-6.82 35.11 C-7.08 42.98, -3.18 52.28, -2.66 65.72" stroke="#5f3dc4" stroke-width="1" fill="none"></path></g><g transform="translate(289.56670942742255 84) rotate(0 1.1794899007025492 30.94760806936779)"><path d="M8.9 41.2 C7.19 42.39, 5.95 46.69, -1.35 67.05 M13.59 37.26 C6.78 44.8, 4.16 53.41, -2.66 65.72" stroke="#5f3dc4" stroke-width="1" fill="none"></path></g></g><mask></mask><g transform="translate(310.9280937379343 99) rotate(0 46.875 12)"><text x="0" y="0" font-family="Cascadia, Segoe UI Emoji" font-size="20px" fill="#c92a2a" text-anchor="start" style="white-space: pre;" direction="ltr" dominant-baseline="text-before-edge">action()</text></g><g stroke-linecap="round" transform="translate(516.9280937379343 163) rotate(0 56 29.5)"><path d="M14.75 0 M14.75 0 C47.18 -2.59, 79.9 3.23, 97.25 0 M14.75 0 C42.42 -1.49, 65.71 -2.79, 97.25 0 M97.25 0 C106.75 -2.68, 108.44 7.83, 112 14.75 M97.25 0 C106.74 -2.7, 113.98 5.73, 112 14.75 M112 14.75 C109.28 23.09, 111.83 37.45, 112 44.25 M112 14.75 C110.31 20.71, 112.02 29.45, 112 44.25 M112 44.25 C113.38 57.64, 105.78 57.45, 97.25 59 M112 44.25 C109.27 51.68, 109.07 63.09, 97.25 59 M97.25 59 C80.57 57.35, 64.17 62.86, 14.75 59 M97.25 59 C76.33 55.85, 54.43 56.16, 14.75 59 M14.75 59 C1.05 59.8, 2.04 50.11, 0 44.25 M14.75 59 C4.87 59.66, -3.93 50.16, 0 44.25 M0 44.25 C0.79 37.01, 3.11 28.1, 0 14.75 M0 44.25 C-0.44 33.13, 0.41 20.99, 0 14.75 M0 14.75 C-1.06 2.06, 3.34 3.03, 14.75 0 M0 14.75 C2.53 9.12, 4.86 4.43, 14.75 0" stroke="#2b8a3e" stroke-width="1" fill="none"></path></g><g transform="translate(540.5281227296335 180.5) rotate(0 32.39997100830078 12)"><text x="32.39997100830078" y="0" font-family="Virgil, Segoe UI Emoji" font-size="20px" fill="#2b8a3e" text-anchor="middle" style="white-space: pre;" direction="ltr" dominant-baseline="text-before-edge">loading</text></g><g stroke-linecap="round"><g transform="translate(348.9280937379343 176.60053318436258) rotate(0 83.41606773696844 10.854277085291415)"><path d="M-2.12 -0.33 C26.16 3.83, 140.38 20.2, 168.95 24.69 M1.92 -2.98 C30.08 0.29, 139.96 15.74, 167.78 19.97" stroke="#5f3dc4" stroke-width="1" fill="none"></path></g><g transform="translate(348.9280937379343 176.60053318436258) rotate(0 83.41606773696844 10.854277085291415)"><path d="M137.93 28.87 C147.22 28.21, 157.99 25.82, 167.7 16.48 M136.63 27.54 C145.11 23.88, 152.97 23.98, 168.31 19" stroke="#5f3dc4" stroke-width="1" fill="none"></path></g><g transform="translate(348.9280937379343 176.60053318436258) rotate(0 83.41606773696844 10.854277085291415)"><path d="M140.88 8.56 C149.33 13.41, 159.29 16.57, 167.7 16.48 M139.57 7.23 C147.34 8.26, 154.5 13.1, 168.31 19" stroke="#5f3dc4" stroke-width="1" fill="none"></path></g></g><mask></mask><g transform="translate(367.9280937379343 145) rotate(0 59.659950256347656 12)"><text x="0" y="0" font-family="Virgil, Segoe UI Emoji" font-size="20px" fill="#5f3dc4" text-anchor="start" style="white-space: pre;" direction="ltr" dominant-baseline="text-before-edge">loadingDelay</text></g><g stroke-linecap="round"><g transform="translate(290.5434411209677 236.99999999999955) rotate(0 0.434877207399893 36.47885002917428)"><path d="M2.35 2.46 C1.98 13.71, 0.92 57.4, -0.23 68.03 M0.18 1.33 C-0.57 13.01, -1.6 60.47, -1.46 71.63" stroke="#5f3dc4" stroke-width="1" fill="none"></path></g><g transform="translate(290.5434411209677 236.99999999999955) rotate(0 0.434877207399893 36.47885002917428)"><path d="M-7.97 45.98 C-7.75 50.15, -6.64 63.76, -4.15 68.07 M-10.62 43.7 C-7.25 53.04, -3.32 63.34, -2.11 71.69" stroke="#5f3dc4" stroke-width="1" fill="none"></path></g><g transform="translate(290.5434411209677 236.99999999999955) rotate(0 0.434877207399893 36.47885002917428)"><path d="M12.55 46.15 C5.19 50.6, -1.3 64.15, -4.15 68.07 M9.9 43.88 C5.62 52.91, 1.9 63.14, -2.11 71.69" stroke="#5f3dc4" stroke-width="1" fill="none"></path></g></g><mask></mask><g stroke-linecap="round" transform="translate(230.92809373793432 308) rotate(0 59 57.5)"><path d="M75 14.5 M75 14.5 C86.18 21.77, 94.32 36.06, 103 43.5 M75 14.5 C80.85 19.67, 88.39 27.95, 103 43.5 M103 43.5 C119.07 56.06, 119.48 55.56, 103 72.5 M103 43.5 C116.51 58.13, 121.92 56.58, 103 72.5 M103 72.5 C93.09 79.03, 89.05 84.86, 75 100.5 M103 72.5 C90.74 82.12, 81.91 95.83, 75 100.5 M75 100.5 C56.44 117.15, 60.02 115.73, 45 100.5 M75 100.5 C58.09 117.01, 64.43 112.89, 45 100.5 M45 100.5 C34.18 91.46, 27 82.1, 15 72.5 M45 100.5 C35.1 91.23, 23.81 80.28, 15 72.5 M15 72.5 C0.12 55.77, 3.18 58.46, 15 43.5 M15 72.5 C1.95 61.19, 1.98 62.31, 15 43.5 M15 43.5 C23.98 36.53, 30.7 27.62, 45 14.5 M15 43.5 C23.18 38.24, 28.92 31.71, 45 14.5 M45 14.5 C58.54 2.36, 60.85 2.95, 75 14.5 M45 14.5 C56.17 -2.81, 57.23 1.56, 75 14.5" stroke="#5f3dc4" stroke-width="1" fill="none"></path></g><g transform="translate(265.64812547621557 353.75) rotate(0 24.27996826171875 12)"><text x="24.27996826171875" y="0" font-family="Virgil, Segoe UI Emoji" font-size="20px" fill="#5f3dc4" text-anchor="middle" style="white-space: pre;" direction="ltr" dominant-baseline="text-before-edge">finish</text></g><g stroke-linecap="round" transform="translate(52.92809373793432 332) rotate(0 67 34.5)"><path d="M17.25 0 M17.25 0 C50.96 1.41, 87.34 -1.82, 116.75 0 M17.25 0 C55.21 1.52, 91.98 0.2, 116.75 0 M116.75 0 C129.73 -2.44, 132.7 5.87, 134 17.25 M116.75 0 C132.17 -1.42, 129.47 3.25, 134 17.25 M134 17.25 C130.96 27.06, 136.87 32.8, 134 51.75 M134 17.25 C134.45 28.04, 131.81 36.34, 134 51.75 M134 51.75 C134.02 63.98, 126.59 70.74, 116.75 69 M134 51.75 C138.43 61.14, 126.4 65.11, 116.75 69 M116.75 69 C83.8 64.25, 57.41 70.16, 17.25 69 M116.75 69 C95.07 67.58, 76.86 68.17, 17.25 69 M17.25 69 C8.93 69.46, 1.7 66.03, 0 51.75 M17.25 69 C7.73 73.31, -1.88 61.42, 0 51.75 M0 51.75 C-0.24 41.51, -3.03 31.83, 0 17.25 M0 51.75 C-0.4 40.71, -1.11 27, 0 17.25 M0 17.25 C0.85 8.7, 2.42 -2.45, 17.25 0 M0 17.25 C-2.77 7.31, 10.17 4.56, 17.25 0" stroke="#2b8a3e" stroke-width="1" fill="none"></path></g><g transform="translate(82.44813615736791 342.5) rotate(0 37.479957580566406 24)"><text x="37.479957580566406" y="0" font-family="Virgil, Segoe UI Emoji" font-size="20px" fill="#2b8a3e" text-anchor="middle" style="white-space: pre;" direction="ltr" dominant-baseline="text-before-edge">success</text><text x="37.479957580566406" y="24" font-family="Virgil, Segoe UI Emoji" font-size="20px" fill="#2b8a3e" text-anchor="middle" style="white-space: pre;" direction="ltr" dominant-baseline="text-before-edge">data</text></g><g stroke-linecap="round"><g transform="translate(233.92809373793432 366) rotate(0 -24.36162747777996 0.28251197577515086)"><path d="M-0.23 -1.88 C-7.91 -1.37, -40.83 1.3, -48.49 1.2 M-3.8 3.27 C-10.41 3.18, -36.05 -2.12, -43.44 -2.71" stroke="#5f3dc4" stroke-width="1" fill="none"></path></g><g transform="translate(233.92809373793432 366) rotate(0 -24.36162747777996 0.28251197577515086)"><path d="M-23.6 -10.95 C-22.86 -6.73, -32.91 -3.71, -42.73 -1.63 M-21.57 -7.33 C-24.84 -7.1, -34.18 -6.39, -44.55 -4.69" stroke="#5f3dc4" stroke-width="1" fill="none"></path></g><g transform="translate(233.92809373793432 366) rotate(0 -24.36162747777996 0.28251197577515086)"><path d="M-25.86 4.63 C-24.43 5.53, -34 5.24, -42.73 -1.63 M-23.83 8.24 C-26.65 4.58, -35.42 1.37, -44.55 -4.69" stroke="#5f3dc4" stroke-width="1" fill="none"></path></g></g><mask></mask><g stroke-linecap="round" transform="translate(393.9280937379343 341) rotate(0 62.5 26.5)"><path d="M13.25 0 M13.25 0 C44.9 1.45, 68.36 3.47, 111.75 0 M13.25 0 C45.29 -0.26, 75.2 1.01, 111.75 0 M111.75 0 C124 -1.24, 121.06 2.25, 125 13.25 M111.75 0 C118.02 -4.56, 126.37 1.71, 125 13.25 M125 13.25 C123.92 19.74, 123.38 32.71, 125 39.75 M125 13.25 C124.54 23.92, 123.7 34.73, 125 39.75 M125 39.75 C128.85 46.75, 118.98 49.62, 111.75 53 M125 39.75 C125.1 44.56, 118.54 49.68, 111.75 53 M111.75 53 C87.76 53.97, 72.27 50.59, 13.25 53 M111.75 53 C92.19 52.13, 70.28 53.29, 13.25 53 M13.25 53 C6.14 56.74, -1.64 46.99, 0 39.75 M13.25 53 C2.85 54.13, 0.39 48.5, 0 39.75 M0 39.75 C3.41 34.7, 4.03 25.21, 0 13.25 M0 39.75 C0.62 30.73, -1.47 17.53, 0 13.25 M0 13.25 C-2.41 5.77, 8.26 3.96, 13.25 0 M0 13.25 C-0.91 0.39, 1.96 3.17, 13.25 0" stroke="#2b8a3e" stroke-width="1" fill="none"></path></g><g transform="translate(432.51812059340307 355.5) rotate(0 23.90997314453125 12)"><text x="23.90997314453125" y="0" font-family="Virgil, Segoe UI Emoji" font-size="20px" fill="#2b8a3e" text-anchor="middle" style="white-space: pre;" direction="ltr" dominant-baseline="text-before-edge">error</text></g><g stroke-linecap="round"><g transform="translate(345.9280937379343 365) rotate(0 21.718027493171405 -0.30527715325365534)"><path d="M-0.21 -1.65 C8.07 -1.9, 39.38 0.45, 47.21 0.5 M-3.77 3.63 C4.47 2.28, 37.43 -3.81, 45.62 -4.24" stroke="#5f3dc4" stroke-width="1" fill="none"></path></g><g transform="translate(345.9280937379343 365) rotate(0 21.718027493171405 -0.30527715325365534)"><path d="M22.84 8.04 C30.06 5.19, 31.72 3.37, 43.19 -5.54 M23.22 5.23 C30.09 1.26, 37.98 -1.13, 46.31 -2.47" stroke="#5f3dc4" stroke-width="1" fill="none"></path></g><g transform="translate(345.9280937379343 365) rotate(0 21.718027493171405 -0.30527715325365534)"><path d="M20.83 -7.56 C28.7 -7.11, 30.79 -5.64, 43.19 -5.54 M21.21 -10.37 C28.95 -9.6, 37.46 -7.27, 46.31 -2.47" stroke="#5f3dc4" stroke-width="1" fill="none"></path></g></g><mask></mask><g transform="translate(299.9280937379343 252) rotate(0 67.9099349975586 12)"><text x="0" y="0" font-family="Virgil, Segoe UI Emoji" font-size="20px" fill="#5f3dc4" text-anchor="start" style="white-space: pre;" direction="ltr" dominant-baseline="text-before-edge">axios request</text></g><g stroke-linecap="round"><g transform="translate(455.9280937379343 397) rotate(0 -0.6136334215249235 26.819899190850492)"><path d="M0.75 -1.36 C0.72 7.27, 1.31 43.05, 1.04 52.29 M-2.29 4.08 C-2.7 12.99, -0.49 46.14, -0.64 55" stroke="#5f3dc4" stroke-width="1" fill="none"></path></g><g transform="translate(455.9280937379343 397) rotate(0 -0.6136334215249235 26.819899190850492)"><path d="M-12.51 31.37 C-9.51 37.15, -3.55 50.48, -1.88 51.06 M-9.98 28.71 C-7.72 38.03, -6.62 41.65, -1.83 53.95" stroke="#5f3dc4" stroke-width="1" fill="none"></path></g><g transform="translate(455.9280937379343 397) rotate(0 -0.6136334215249235 26.819899190850492)"><path d="M5.95 30.86 C2.62 36.92, 2.25 50.41, -1.88 51.06 M8.49 28.2 C6.2 37.28, 2.76 41.02, -1.83 53.95" stroke="#5f3dc4" stroke-width="1" fill="none"></path></g></g><mask></mask><g stroke-linecap="round" transform="translate(399.9280937379343 455) rotate(0 58 26.5)"><path d="M13.25 0 M13.25 0 C40.07 -1.96, 71.87 2.75, 102.75 0 M13.25 0 C36.22 -1.01, 62.02 -0.21, 102.75 0 M102.75 0 C112.97 3.55, 114.69 2.86, 116 13.25 M102.75 0 C108.85 -2.41, 117.98 8.5, 116 13.25 M116 13.25 C117.01 17.18, 118.03 28.29, 116 39.75 M116 13.25 C115.83 18.23, 114.9 25.28, 116 39.75 M116 39.75 C112.13 49.38, 113.62 49.03, 102.75 53 M116 39.75 C115.96 49.24, 107.65 49.08, 102.75 53 M102.75 53 C76.1 56.12, 51.31 56.14, 13.25 53 M102.75 53 C66.84 52.78, 32.46 52.25, 13.25 53 M13.25 53 C3.35 50.14, -1.58 51.61, 0 39.75 M13.25 53 C6.94 57.2, -0.05 53.01, 0 39.75 M0 39.75 C2.64 29.44, -2.76 23.37, 0 13.25 M0 39.75 C-0.91 29.15, -1.58 23.43, 0 13.25 M0 13.25 C-0.7 6.69, 7.55 1.52, 13.25 0 M0 13.25 C-4.56 0.96, 2.79 -1.93, 13.25 0" stroke="#2b8a3e" stroke-width="1" fill="none"></path></g><g transform="translate(475.9280937379343 410) rotate(0 41.015625 12)"><text x="0" y="0" font-family="Cascadia, Segoe UI Emoji" font-size="20px" fill="#c92a2a" text-anchor="start" style="white-space: pre;" direction="ltr" dominant-baseline="text-before-edge">retry()</text></g><g transform="translate(421.6481331056101 469.5) rotate(0 36.27996063232422 12)"><text x="36.27996063232422" y="0" font-family="Virgil, Segoe UI Emoji" font-size="20px" fill="#2b8a3e" text-anchor="middle" style="white-space: pre;" direction="ltr" dominant-baseline="text-before-edge">retrying</text></g><g stroke-linecap="round"><g transform="translate(516.2267159874417 469) rotate(0 -34.46676794021516 -136.60765649309815)"><path d="M2.39 -0.87 C17.86 -23.3, 120.32 -89.27, 91.95 -134.52 C63.57 -179.77, -124.96 -249.57, -167.86 -272.35 M0.24 -3.8 C16.62 -25.9, 125.31 -87.22, 96.85 -131.71 C68.39 -176.21, -126.96 -247.78, -170.51 -270.75" stroke="#5f3dc4" stroke-width="1" fill="none"></path></g><g transform="translate(516.2267159874417 469) rotate(0 -34.46676794021516 -136.60765649309815)"><path d="M-141.82 -272.63 C-150.76 -270.96, -160.56 -268.09, -172.87 -269.36 M-141.77 -269.74 C-151.34 -267.95, -165.62 -269.45, -170.5 -270.38" stroke="#5f3dc4" stroke-width="1" fill="none"></path></g><g transform="translate(516.2267159874417 469) rotate(0 -34.46676794021516 -136.60765649309815)"><path d="M-150.14 -253.87 C-156.87 -257.36, -164.44 -259.51, -172.87 -269.36 M-150.09 -250.98 C-156.31 -256.42, -167.35 -265.21, -170.5 -270.38" stroke="#5f3dc4" stroke-width="1" fill="none"></path></g></g><mask></mask><g stroke-linecap="round" transform="translate(15.928093737934319 99) rotate(0 67.5 35.5)"><path d="M17.75 0 M17.75 0 C53.92 -0.27, 90.46 3.15, 117.25 0 M17.75 0 C41.09 -2.54, 64.54 -2.81, 117.25 0 M117.25 0 C130.81 3.55, 131.44 8.06, 135 17.75 M117.25 0 C129.1 0.84, 133.09 7.92, 135 17.75 M135 17.75 C131.29 31.91, 131.17 44.11, 135 53.25 M135 17.75 C135.33 23.85, 134.29 34.22, 135 53.25 M135 53.25 C131.58 61.67, 129.2 68.77, 117.25 71 M135 53.25 C138.66 65.61, 131.03 74.19, 117.25 71 M117.25 71 C81.53 68.82, 49.97 70.53, 17.75 71 M117.25 71 C86.79 71.09, 59 71.41, 17.75 71 M17.75 71 C5.87 74.85, -1.46 67.44, 0 53.25 M17.75 71 C6.9 74.4, -3.83 62.27, 0 53.25 M0 53.25 C3.72 43.94, -3.74 34.1, 0 17.75 M0 53.25 C1.69 40.92, -1.86 25.56, 0 17.75 M0 17.75 C-1.41 4.24, 2.06 -0.58, 17.75 0 M0 17.75 C1.99 7.77, 9.26 0.86, 17.75 0" stroke="#2b8a3e" stroke-width="1" fill="none"></path></g><g transform="translate(45.02813035902807 122.5) rotate(0 38.39996337890625 12)"><text x="38.39996337890625" y="0" font-family="Virgil, Segoe UI Emoji" font-size="20px" fill="#2b8a3e" text-anchor="middle" style="white-space: pre;" direction="ltr" dominant-baseline="text-before-edge">aborted</text></g><g stroke-linecap="round"><g transform="translate(223.92809373793432 197.90060753343732) rotate(0 -35.07942637324328 -33.197005362032314)"><path d="M-1.56 -2.77 C-12.96 -13.9, -59.59 -58.06, -71.16 -68.29 M2.79 1.89 C-8.66 -8.76, -60.43 -53.85, -72.95 -65.55" stroke="#5f3dc4" stroke-width="1" fill="none"></path></g><g transform="translate(223.92809373793432 197.90060753343732) rotate(0 -35.07942637324328 -33.197005362032314)"><path d="M-49.08 -53.15 C-52.97 -55.53, -52.67 -60.48, -74.5 -67.93 M-46.9 -53.27 C-52.1 -56.26, -59.83 -58.53, -71.02 -66.47" stroke="#5f3dc4" stroke-width="1" fill="none"></path></g><g transform="translate(223.92809373793432 197.90060753343732) rotate(0 -35.07942637324328 -33.197005362032314)"><path d="M-62.8 -37.89 C-63.75 -43.19, -60.69 -51.22, -74.5 -67.93 M-60.62 -38.01 C-62.55 -45.02, -66.89 -51.07, -71.02 -66.47" stroke="#5f3dc4" stroke-width="1" fill="none"></path></g></g><mask></mask><g transform="translate(130.92809373793432 181) rotate(0 41.015625 12)"><text x="0" y="0" font-family="Cascadia, Segoe UI Emoji" font-size="20px" fill="#c92a2a" text-anchor="start" style="white-space: pre;" direction="ltr" dominant-baseline="text-before-edge">abort()</text></g><g transform="translate(524.9280937379343 467) rotate(0 82.03125 24)"><text x="0" y="0" font-family="Cascadia, Segoe UI Emoji" font-size="20px" fill="#5f3dc4" text-anchor="start" style="white-space: pre;" direction="ltr" dominant-baseline="text-before-edge">retryTimes++</text><text x="0" y="24" font-family="Cascadia, Segoe UI Emoji" font-size="20px" fill="#5f3dc4" text-anchor="start" style="white-space: pre;" direction="ltr" dominant-baseline="text-before-edge">requestTimes++</text></g><g stroke-linecap="round"><g transform="translate(289.9280937379343 423.25914437542906) rotate(0 -0.48455248400142636 33.13924407283207)"><path d="M1.08 0.01 C0.75 11.29, -1.76 56.3, -2.05 67.32 M0.19 -1.04 C0.24 9.93, 0.46 54.14, 0.24 65.49" stroke="#5f3dc4" stroke-width="1" fill="none"></path></g><g transform="translate(289.9280937379343 423.25914437542906) rotate(0 -0.48455248400142636 33.13924407283207)"><path d="M-9.86 35.91 C-6.01 46.5, -5.04 53.28, 1.33 65.62 M-8.96 37.55 C-6.8 46.98, -3.57 55.69, -0.19 65.52" stroke="#5f3dc4" stroke-width="1" fill="none"></path></g><g transform="translate(289.9280937379343 423.25914437542906) rotate(0 -0.48455248400142636 33.13924407283207)"><path d="M10.66 36.02 C8.44 46.76, 3.34 53.51, 1.33 65.62 M11.56 37.66 C7.05 47.23, 3.61 55.91, -0.19 65.52" stroke="#5f3dc4" stroke-width="1" fill="none"></path></g></g><mask></mask><g stroke-linecap="round" transform="translate(237.92809373793432 495) rotate(0 55.5 24)"><path d="M12 0 M12 0 C45.69 1.78, 78.16 -0.58, 99 0 M12 0 C39.56 -0.1, 68.53 1, 99 0 M99 0 C106.95 1.03, 110.92 3.01, 111 12 M99 0 C106.25 -1.59, 110.5 3.29, 111 12 M111 12 C111.77 21.42, 112.19 28.25, 111 36 M111 12 C111.37 18.32, 111.84 25.3, 111 36 M111 36 C110.3 42.6, 108.88 48.83, 99 48 M111 36 C112.02 42.43, 107.99 49.15, 99 48 M99 48 C78.18 47.51, 57.67 47.91, 12 48 M99 48 C76.42 47.64, 52.77 47.47, 12 48 M12 48 C2.48 46.52, -1.06 44.91, 0 36 M12 48 C3.36 46.15, -1.36 43.22, 0 36 M0 36 C-0.62 27.51, 0.04 20.61, 0 12 M0 36 C0.39 28.9, 0.28 22.38, 0 12 M0 12 C0.78 5.51, 2.03 1.74, 12 0 M0 12 C1.48 5.67, 4.81 0.38, 12 0" stroke="#2b8a3e" stroke-width="1" fill="none"></path></g><g transform="translate(246.7881477540476 507) rotate(0 46.63994598388672 12)"><text x="46.63994598388672" y="0" font-family="Virgil, Segoe UI Emoji" font-size="20px" fill="#2b8a3e" text-anchor="middle" style="white-space: pre;" direction="ltr" dominant-baseline="text-before-edge">refreshing</text></g><g transform="translate(300.9280937379343 422) rotate(0 52.734375 12)"><text x="0" y="0" font-family="Cascadia, Segoe UI Emoji" font-size="20px" fill="#c92a2a" text-anchor="start" style="white-space: pre;" direction="ltr" dominant-baseline="text-before-edge">refresh()</text></g><g stroke-linecap="round"><g transform="translate(234.92809373793443 517.9761596488684) rotate(0 -111.5712963820493 -150.673985557881)"><path d="M-0.27 -0.25 C-37.83 -25.86, -220.44 -104.19, -224.28 -154.02 C-228.12 -203.85, -56.73 -275.05, -23.32 -299.25 M1.79 -1.42 C-35.96 -26.89, -220.6 -103.08, -224.85 -153.03 C-229.1 -202.98, -57.29 -276.4, -23.73 -301.1" stroke="#5f3dc4" stroke-width="1" fill="none"></path></g><g transform="translate(234.92809373793443 517.9761596488684) rotate(0 -111.5712963820493 -150.673985557881)"><path d="M-43.62 -277.08 C-37.32 -285.96, -26.48 -295.68, -22.12 -299.62 M-44.15 -278.83 C-37.11 -285.87, -30.21 -291.9, -22.88 -300.12" stroke="#5f3dc4" stroke-width="1" fill="none"></path></g><g transform="translate(234.92809373793443 517.9761596488684) rotate(0 -111.5712963820493 -150.673985557881)"><path d="M-53.73 -294.94 C-43.57 -296.87, -28.8 -299.66, -22.12 -299.62 M-54.27 -296.68 C-44.19 -298.13, -34.17 -298.66, -22.88 -300.12" stroke="#5f3dc4" stroke-width="1" fill="none"></path></g></g><mask></mask><g transform="translate(16.61559373793432 490) rotate(0 82.03125 12)"><text x="0" y="0" font-family="Cascadia, Segoe UI Emoji" font-size="20px" fill="#5f3dc4" text-anchor="start" style="white-space: pre;" direction="ltr" dominant-baseline="text-before-edge">requestTimes++</text></g></svg>